<svg width="533" height="286" viewBox="0 0 533 286" fill="none" xmlns="http://www.w3.org/2000/svg">
<g clip-path="url(#clip0_366_2525)">
<g filter="url(#filter0_d_366_2525)">
<path d="M129.613 21.1855H420.581C431.558 21.1855 440.42 30.0568 440.42 41.0467V266.139C440.42 277.129 431.558 286 420.581 286H129.613C118.636 286 109.774 277.129 109.774 266.139V41.0467C109.774 30.0568 118.636 21.1855 129.613 21.1855Z" fill="#EABEAF" fill-opacity="0.7" shape-rendering="crispEdges"/>
</g>
<g opacity="0.8">
<path d="M61.632 42.3701H364.371C370.058 42.3701 374.687 47.1368 374.687 52.9627V97.9812C374.687 103.807 370.058 108.574 364.371 108.574H61.632C55.9449 108.574 51.3159 103.807 51.3159 97.9812V52.9627C51.3159 47.1368 55.9449 42.3701 61.632 42.3701Z" fill="#C3C3C3"/>
</g>
<path d="M58.1934 37.0752H367.677C373.497 37.0752 378.258 41.8419 378.258 47.6678V92.6863C378.258 98.5122 373.497 103.279 367.677 103.279H58.1934C52.3741 103.279 47.6128 98.5122 47.6128 92.6863V47.6678C47.6128 41.8419 52.3741 37.0752 58.1934 37.0752Z" fill="white"/>
<path d="M137.548 54.2871H206.322C209.232 54.2871 211.613 56.6704 211.613 59.5834C211.613 62.4964 209.232 64.8797 206.322 64.8797H137.548C134.638 64.8797 132.258 62.4964 132.258 59.5834C132.258 56.6704 134.638 54.2871 137.548 54.2871Z" fill="#E5E5E5"/>
<path d="M137.548 74.1484H292.29C295.2 74.1484 297.58 76.5318 297.58 79.4447C297.58 82.3577 295.2 84.741 292.29 84.741H137.548C134.638 84.741 132.258 82.3577 132.258 79.4447C132.258 76.5318 134.638 74.1484 137.548 74.1484Z" fill="#F3F3F3"/>
<path d="M84.6451 48.9912H105.806C111.626 48.9912 116.387 53.7579 116.387 59.5838V80.769C116.387 86.5949 111.626 91.3616 105.806 91.3616H84.6451C78.8257 91.3616 74.0645 86.5949 74.0645 80.769V59.5838C74.0645 53.7579 78.8257 48.9912 84.6451 48.9912Z" fill="#E5E5E5"/>
<g opacity="0.3">
<path d="M246 66.6009C259.879 66.6009 271.129 55.3376 271.129 41.4435C271.129 27.5495 259.879 16.2861 246 16.2861C232.122 16.2861 220.871 27.5495 220.871 41.4435C220.871 55.3376 232.122 66.6009 246 66.6009Z" fill="#C3C3C3"/>
</g>
<path d="M246 56.9359C259.879 56.9359 271.129 45.6726 271.129 31.7785C271.129 17.8844 259.879 6.62109 246 6.62109C232.122 6.62109 220.871 17.8844 220.871 31.7785C220.871 45.6726 232.122 56.9359 246 56.9359Z" fill="#C4C4C4"/>
<path d="M255.919 23.1717C254.597 21.8476 252.745 21.1855 250.893 21.1855C249.042 21.1855 247.322 21.8476 246 23.0393C244.677 21.8476 242.958 21.1855 241.106 21.1855C237.139 21.1855 234.097 24.3634 234.097 28.3356C234.097 30.1893 234.89 31.9105 236.081 33.2346L244.81 41.9735C245.074 42.2383 245.603 42.5031 246 42.5031C246.397 42.5031 246.793 42.3707 247.19 41.9735L255.919 33.2346C257.242 31.9105 257.903 30.0568 257.903 28.2031C257.903 26.3494 257.11 24.4957 255.919 23.1717Z" fill="white"/>
<path d="M208.836 126.582H511.574C517.262 126.582 521.891 131.216 521.891 136.91V180.869C521.891 186.563 517.262 191.197 511.574 191.197H208.836C203.149 191.197 198.52 186.563 198.52 180.869V136.91C198.52 131.216 203.149 126.582 208.836 126.582Z" fill="#C3C3C3"/>
<path d="M206.323 120.491H515.807C521.627 120.491 526.388 125.258 526.388 131.084V176.102C526.388 181.928 521.627 186.695 515.807 186.695H206.323C200.504 186.695 195.743 181.928 195.743 176.102V131.084C195.743 125.258 200.504 120.491 206.323 120.491Z" fill="white"/>
<path d="M285.678 137.705H354.452C357.361 137.705 359.742 140.088 359.742 143.001C359.742 145.914 357.361 148.298 354.452 148.298H285.678C282.768 148.298 280.387 145.914 280.387 143.001C280.387 140.088 282.768 137.705 285.678 137.705Z" fill="#E5E5E5"/>
<path d="M285.678 157.566H440.419C443.329 157.566 445.71 159.95 445.71 162.863C445.71 165.776 443.329 168.159 440.419 168.159H285.678C282.768 168.159 280.387 165.776 280.387 162.863C280.387 159.95 282.768 157.566 285.678 157.566Z" fill="#F3F3F3"/>
<path d="M232.774 132.408H253.936C259.755 132.408 264.516 137.175 264.516 143.001V164.186C264.516 170.012 259.755 174.779 253.936 174.779H232.774C226.955 174.779 222.194 170.012 222.194 164.186V143.001C222.194 137.175 226.955 132.408 232.774 132.408Z" fill="#E5E5E5"/>
<g opacity="0.3">
<path d="M486.181 176.103C500.059 176.103 511.31 164.84 511.31 150.945C511.31 137.051 500.059 125.788 486.181 125.788C472.302 125.788 461.052 137.051 461.052 150.945C461.052 164.84 472.302 176.103 486.181 176.103Z" fill="#C3C3C3"/>
</g>
<path d="M485.387 166.833C499.266 166.833 510.516 155.57 510.516 141.676C510.516 127.782 499.266 116.519 485.387 116.519C471.509 116.519 460.258 127.782 460.258 141.676C460.258 155.57 471.509 166.833 485.387 166.833Z" fill="#C4C4C4"/>
<path d="M496.761 140.353C497.423 139.823 497.423 138.896 496.894 138.234C496.629 137.97 496.232 137.705 495.836 137.705L489.355 137.175C489.223 137.175 489.091 137.043 488.958 136.91L486.578 130.819C486.445 130.422 486.181 130.157 485.784 130.025C485.387 129.893 485.123 129.893 484.726 130.025C484.329 130.29 484.065 130.555 483.932 130.952L481.552 137.043C481.552 137.175 481.287 137.307 481.155 137.307L474.674 137.837C474.145 137.837 473.616 138.234 473.352 138.764C473.087 139.426 473.352 140.088 473.881 140.485L478.907 144.59C479.039 144.722 479.039 144.855 479.039 145.119L477.584 150.945C477.452 151.607 477.716 152.27 478.245 152.667C478.774 153.064 479.568 153.064 479.965 152.667L485.123 149.489C485.255 149.357 485.387 149.357 485.387 149.489L490.942 152.932C491.207 153.064 491.339 153.196 491.603 153.196C491.868 153.196 492.132 153.064 492.397 152.932C492.926 152.534 493.058 152.005 493.058 151.343L491.471 144.987C491.471 144.855 491.471 144.59 491.603 144.457L496.761 140.353Z" fill="white"/>
<path d="M62.0296 209.732H364.768C370.455 209.732 375.084 214.499 375.084 220.325V265.344C375.084 271.169 370.455 275.936 364.768 274.612H62.0296C56.3425 275.936 51.7134 271.169 51.7134 265.344V220.325C51.7134 214.499 56.3425 209.732 62.0296 209.732Z" fill="#C3C3C3"/>
<path d="M58.1934 203.907H367.677C373.497 203.907 378.258 208.674 378.258 214.5V259.518C378.258 265.344 373.497 270.111 367.677 270.111H58.1934C52.3741 270.111 47.6128 265.344 47.6128 259.518V214.5C47.6128 208.674 52.3741 203.907 58.1934 203.907Z" fill="white"/>
<path d="M137.549 221.12H206.323C209.232 221.12 211.613 223.503 211.613 226.416C211.613 229.329 209.232 231.713 206.323 231.713H137.549C134.639 231.713 132.258 229.329 132.258 226.416C132.258 223.503 134.639 221.12 137.549 221.12Z" fill="#E5E5E5"/>
<path d="M137.549 240.981H292.291C295.2 240.981 297.581 243.365 297.581 246.278C297.581 249.191 295.2 251.574 292.291 251.574H137.549C134.639 251.574 132.258 249.191 132.258 246.278C132.258 243.365 134.639 240.981 137.549 240.981Z" fill="#F3F3F3"/>
<path d="M84.6451 215.824H105.806C111.626 215.824 116.387 220.591 116.387 226.417V247.602C116.387 253.428 111.626 258.195 105.806 258.195H84.6451C78.8257 258.195 74.0645 253.428 74.0645 247.602V226.417C74.0645 220.591 78.8257 215.824 84.6451 215.824Z" fill="#E5E5E5"/>
<g opacity="0.3">
<path d="M48.0094 236.877C61.8878 236.877 73.1384 225.614 73.1384 211.72C73.1384 197.826 61.8878 186.562 48.0094 186.562C34.131 186.562 22.8804 197.826 22.8804 211.72C22.8804 225.614 34.131 236.877 48.0094 236.877Z" fill="#C3C3C3"/>
</g>
<path d="M47.6129 227.74C61.4913 227.74 72.742 216.476 72.742 202.582C72.742 188.688 61.4913 177.425 47.6129 177.425C33.7345 177.425 22.4839 188.688 22.4839 202.582C22.4839 216.476 33.7345 227.74 47.6129 227.74Z" fill="#C4C4C4"/>
<path d="M52.242 192.918H42.7194C41.3968 192.918 40.2065 193.977 40.2065 195.301V195.434V211.72C40.2065 211.985 40.471 212.249 40.7355 212.382C40.7355 212.382 40.7356 212.382 40.8678 212.382C41.0001 212.382 41.1323 212.382 41.1323 212.249L47.613 208.674L54.0936 212.249C54.3582 212.382 54.7549 212.249 54.8872 211.985C54.8872 211.852 54.8871 211.852 55.0194 211.72V195.434C54.8871 193.977 53.6968 192.918 52.242 192.918Z" fill="white"/>
</g>
<defs>
<filter id="filter0_d_366_2525" x="79.7744" y="-0.814453" width="390.645" height="324.814" filterUnits="userSpaceOnUse" color-interpolation-filters="sRGB">
<feFlood flood-opacity="0" result="BackgroundImageFix"/>
<feColorMatrix in="SourceAlpha" type="matrix" values="0 0 0 0 0 0 0 0 0 0 0 0 0 0 0 0 0 0 127 0" result="hardAlpha"/>
<feOffset dy="8"/>
<feGaussianBlur stdDeviation="15"/>
<feComposite in2="hardAlpha" operator="out"/>
<feColorMatrix type="matrix" values="0 0 0 0 0.941176 0 0 0 0 0.819608 0 0 0 0 0.780392 0 0 0 0.5 0"/>
<feBlend mode="normal" in2="BackgroundImageFix" result="effect1_dropShadow_366_2525"/>
<feBlend mode="normal" in="SourceGraphic" in2="effect1_dropShadow_366_2525" result="shape"/>
</filter>
<clipPath id="clip0_366_2525">
<rect width="533" height="286" fill="white"/>
</clipPath>
</defs>
</svg>
